<svg version="1.1" id="Layer_1" xmlns="http://www.w3.org/2000/svg" xmlns:xlink="http://www.w3.org/1999/xlink" x="0px" y="0px"
	 width="100%" viewBox="0 0 540 404" enable-background="new 0 0 540 404" xml:space="preserve">
<path fill="#FEFEFF" opacity="1.000000" stroke="none" 
	d="
M381.000000,405.000000 
	C254.000000,405.000000 127.500000,405.000000 1.000000,405.000000 
	C1.000000,270.333344 1.000000,135.666672 1.000000,1.000000 
	C181.000000,1.000000 361.000000,1.000000 541.000000,1.000000 
	C541.000000,135.666672 541.000000,270.333344 541.000000,405.000000 
	C487.833344,405.000000 434.666656,405.000000 381.000000,405.000000 
M349.804993,59.963432 
	C349.804993,59.963432 349.646027,59.641068 349.006805,59.768089 
	C347.929047,60.785374 346.851288,61.802658 345.924011,62.894398 
	C345.924011,62.894398 345.813873,62.767681 345.138092,62.898987 
	C344.545624,63.952801 343.953156,65.006615 343.151611,66.967346 
	C343.222839,74.624359 343.294067,82.281364 343.299591,90.596107 
	C346.524109,92.472816 349.748657,94.349518 353.228088,96.605026 
	C353.623291,96.808861 354.018494,97.012695 354.864288,97.765007 
	C357.794067,99.479881 360.723846,101.194756 364.321747,103.300682 
	C364.321747,84.407700 364.321747,66.464478 364.321747,46.893738 
	C359.544159,51.079166 355.677734,54.466351 351.930389,57.924805 
	C351.930389,57.924805 351.859894,57.805264 351.253174,57.916672 
	C350.721832,58.492058 350.190491,59.067444 349.804993,59.963432 
M371.157867,79.957375 
	C371.160919,80.301918 371.163971,80.646454 371.022705,81.919449 
	C371.010193,88.852211 370.900452,95.787384 371.071503,102.715607 
	C371.103668,104.017708 372.256653,105.292130 373.019501,107.217888 
	C379.018707,110.488548 385.017914,113.759216 391.825775,116.953087 
	C392.151123,116.068550 392.756805,115.185066 392.760132,114.299316 
	C392.819550,98.499405 392.837128,82.699020 392.736786,66.899551 
	C392.730225,65.862656 391.702026,64.832253 390.419067,63.859463 
	C389.140930,64.848366 387.823547,65.790924 386.591522,66.834305 
	C381.603912,71.058197 376.642548,75.313110 371.645782,79.617683 
	C371.645782,79.617683 371.630554,79.682190 371.157867,79.957375 
M455.989777,159.210526 
	C444.763580,153.121429 433.546326,147.015717 422.309601,140.946136 
	C375.778046,115.811867 329.224670,90.717987 282.732452,65.511276 
	C278.536560,63.236382 274.785645,63.184387 270.641846,65.422829 
	C230.645660,87.028412 190.600311,108.543045 150.604614,130.149536 
	C132.511215,139.923950 114.497864,149.846558 96.077286,159.804901 
	C95.839043,159.955856 95.719681,160.172348 95.080002,160.949860 
	C94.854210,162.725235 94.432213,164.500504 94.431114,166.276016 
	C94.396751,221.634201 94.408592,276.992401 94.384453,332.350586 
	C94.383514,334.495361 94.097404,336.640015 93.016640,338.739929 
	C74.344421,338.817352 55.672207,338.894775 36.133488,338.934814 
	C35.729980,340.917847 34.981255,342.901367 34.984188,344.883789 
	C34.995426,352.476929 33.090042,352.722961 42.674992,352.722137 
	C198.468781,352.708862 354.262543,352.713226 510.056335,352.713257 
	C511.555908,352.713257 513.280884,353.172211 514.496033,352.582794 
	C515.906555,351.898621 517.428589,350.471039 517.886475,349.040924 
	C518.467102,347.227570 518.280212,345.042450 517.941040,343.102142 
	C517.688965,341.660034 516.667908,340.352356 515.070190,338.797852 
	C496.395020,338.799072 477.719849,338.800262 458.776306,337.917511 
	C458.686249,336.095276 458.518005,334.273102 458.517548,332.450836 
	C458.503967,277.171875 458.520081,221.892914 458.454651,166.614044 
	C458.452240,164.598755 457.674286,162.584381 457.173370,160.151627 
	C457.023834,159.878433 456.793884,159.728455 455.989777,159.210526 
z"/>
<path fill="#3474D3" opacity="1.000000" stroke="none" 
	d="
M93.944176,338.784729 
	C94.097404,336.640015 94.383514,334.495361 94.384453,332.350586 
	C94.408592,276.992401 94.396751,221.634201 94.431114,166.276016 
	C94.432213,164.500504 94.854210,162.725235 95.500443,161.207489 
	C95.920883,219.939880 95.920883,278.414642 95.920883,336.889404 
	C96.281914,336.890564 96.642937,336.891754 97.003967,336.892944 
	C97.003967,335.099091 97.003967,333.305267 97.003967,331.511414 
	C97.003967,279.080048 96.976021,226.648651 97.053284,174.217422 
	C97.059975,169.677826 97.790886,165.141022 98.065163,160.595673 
	C98.081123,160.331253 97.012222,160.001358 96.448189,159.701935 
	C114.497864,149.846558 132.511215,139.923950 150.604614,130.149536 
	C190.600311,108.543045 230.645660,87.028412 270.641846,65.422829 
	C274.785645,63.184387 278.536560,63.236382 282.732452,65.511276 
	C329.224670,90.717987 375.778046,115.811867 422.309601,140.946136 
	C433.546326,147.015717 444.763580,153.121429 455.910156,159.571411 
	C455.884583,162.450851 455.985291,164.969391 455.985718,167.487976 
	C455.994751,222.277634 455.992554,277.067291 455.992554,331.856934 
	C455.992554,333.520874 455.992584,335.184814 455.992584,336.848755 
	C456.306580,336.838989 456.620575,336.829224 456.934570,336.819427 
	C456.934570,335.015564 456.934540,333.211670 456.934540,331.407776 
	C456.934540,276.784668 456.930634,222.161545 456.948273,167.538422 
	C456.949005,165.215439 457.150024,162.892532 457.257751,160.569580 
	C457.674286,162.584381 458.452240,164.598755 458.454651,166.614044 
	C458.520081,221.892914 458.503967,277.171875 458.517548,332.450836 
	C458.518005,334.273102 458.686249,336.095276 459.150177,338.708588 
	C460.151276,339.668182 460.777283,339.979218 461.405884,339.984528 
	C479.248840,340.135345 497.092041,340.263367 514.935425,340.321991 
	C515.285278,340.323120 515.638062,339.450012 515.989441,338.984772 
	C516.667908,340.352356 517.688965,341.660034 517.941040,343.102142 
	C518.280212,345.042450 518.467102,347.227570 517.886475,349.040924 
	C517.428589,350.471039 515.906555,351.898621 514.496033,352.582794 
	C513.280884,353.172211 511.555908,352.713257 510.056335,352.713257 
	C354.262543,352.713226 198.468781,352.708862 42.674992,352.722137 
	C33.090042,352.722961 34.995426,352.476929 34.984188,344.883789 
	C34.981255,342.901367 35.729980,340.917847 36.619335,339.289795 
	C37.323608,339.863586 37.542751,340.274658 37.760365,340.273865 
	C54.824581,340.210144 71.889030,340.147583 88.952232,339.967926 
	C90.620186,339.950348 92.280380,339.196686 93.944176,338.784729 
M363.617828,195.416382 
	C363.721100,188.384750 363.824371,181.353104 363.684692,173.532410 
	C357.139221,173.258026 350.594391,172.960495 344.046265,172.781937 
	C343.739410,172.773560 343.403625,173.825562 343.002747,175.270386 
	C342.968170,180.894058 342.802185,186.522278 342.996429,192.138031 
	C343.041901,193.452454 344.307678,194.724640 345.168243,196.817795 
	C350.943878,197.009476 356.719269,197.212143 362.496399,197.333801 
	C362.651337,197.337051 362.824738,196.463013 363.617828,195.416382 
M279.935883,175.182266 
	C279.980865,182.063599 280.025818,188.944931 280.179596,196.651657 
	C280.634552,197.067261 281.082642,197.835846 281.545532,197.844833 
	C287.302277,197.956726 293.063080,198.034714 298.817108,197.891632 
	C299.539246,197.873688 300.228638,196.540085 301.058533,194.908325 
	C301.014160,188.039093 300.969757,181.169876 300.681580,173.514801 
	C294.026642,173.335022 287.371918,173.143372 280.715820,173.031403 
	C280.510468,173.027969 280.291199,173.851898 279.935883,175.182266 
M300.824463,201.377548 
	C300.372986,200.956451 299.928650,200.177673 299.469025,200.168518 
	C293.706848,200.054031 287.940582,199.974655 282.181000,200.115891 
	C281.462280,200.133530 280.775909,201.469955 279.932220,203.099472 
	C279.980713,209.970978 280.029175,216.842499 280.317047,224.499359 
	C286.853546,224.779922 293.389404,225.084015 299.928619,225.269562 
	C300.246063,225.278564 300.593048,224.246338 301.058136,222.806854 
	C301.014465,215.940399 300.970795,209.073929 300.824463,201.377548 
M343.426880,202.663330 
	C343.312073,209.645844 343.197266,216.628342 343.304901,224.413559 
	C349.968964,224.610336 356.632812,224.818893 363.298187,224.947495 
	C363.500092,224.951385 363.718109,224.120575 364.060852,222.789185 
	C364.104431,219.340607 364.320984,215.883087 364.143372,212.445938 
	C363.962677,208.949539 363.393738,205.473221 362.820496,201.192719 
	C356.715942,201.013824 350.611572,200.824173 344.505798,200.714951 
	C344.344482,200.712067 344.167480,201.584076 343.426880,202.663330 
M405.724670,202.885849 
	C405.834381,209.847565 405.944092,216.809280 406.326263,224.540222 
	C412.734253,224.780838 419.141998,225.030899 425.551788,225.203064 
	C425.699219,225.207016 425.870270,224.331436 426.520477,223.215118 
	C426.345825,216.149994 426.171204,209.084885 425.824890,201.219650 
	C419.486389,200.955063 413.148407,200.671600 406.807404,200.499619 
	C406.570435,200.493195 406.304047,201.571228 405.724670,202.885849 
M311.474030,202.647369 
	C311.341187,209.593582 311.208344,216.539810 311.289215,224.311890 
	C311.894440,224.821198 312.489838,225.758957 313.106384,225.773056 
	C318.840698,225.904129 324.579956,225.933624 330.313446,225.803726 
	C330.870819,225.791077 331.399414,224.508987 332.296967,223.090225 
	C332.188324,216.083344 332.079651,209.076447 331.823151,201.260757 
	C325.383881,201.055923 318.944824,200.841385 312.504120,200.703751 
	C312.347229,200.700394 312.172119,201.552567 311.474030,202.647369 
M238.183945,222.988007 
	C238.101471,216.046875 238.018982,209.105743 237.822861,201.341263 
	C231.385529,201.106354 224.948471,200.861725 218.509369,200.694199 
	C218.352371,200.690125 218.173050,201.543503 217.410217,202.600800 
	C217.300461,209.608643 217.190704,216.616501 217.308090,224.424820 
	C223.963821,224.631516 230.619293,224.850266 237.276443,224.989059 
	C237.485321,224.993423 237.711411,224.172211 238.183945,222.988007 
M206.944839,222.710876 
	C206.926315,215.913284 206.907791,209.115707 206.823608,201.471756 
	C206.394730,201.027634 205.972641,200.204483 205.535934,200.196640 
	C199.603912,200.090256 193.668671,200.040131 187.738235,200.165771 
	C187.161514,200.177994 186.611435,201.448318 185.770508,202.893082 
	C185.867279,209.850342 185.964035,216.807587 186.321304,224.538635 
	C192.873749,224.787415 199.425659,225.058731 205.980347,225.211960 
	C206.277802,225.218918 206.600189,224.159668 206.944839,222.710876 
M174.939438,223.217880 
	C175.079163,222.954849 175.295685,222.849045 176.449326,222.840988 
	C176.906677,222.433975 177.752853,222.036026 177.762573,221.618576 
	C177.891693,216.080200 177.980774,210.537140 177.841324,205.001251 
	C177.824860,204.347366 176.394669,203.729095 175.153793,202.948990 
	C174.770142,202.649734 174.386475,202.350479 173.830856,201.247055 
	C167.722656,201.046829 161.614685,200.836349 155.505005,200.703827 
	C155.347656,200.700409 155.171783,201.550674 154.408707,202.609344 
	C154.297531,209.621140 154.186371,216.632935 154.307541,224.441345 
	C160.861313,224.722824 167.414429,225.027145 173.970901,225.212738 
	C174.272049,225.221268 174.603409,224.163132 174.939438,223.217880 
M122.733902,202.888214 
	C122.842171,209.843185 122.950447,216.798172 123.318604,224.528961 
	C129.944153,224.603531 136.569672,224.691620 143.195297,224.699615 
	C143.441483,224.699905 143.688629,223.919693 143.896484,222.628906 
	C143.907440,217.231232 144.057220,211.827957 143.840225,206.439453 
	C143.779388,204.928314 142.639465,203.460632 141.817581,201.180267 
	C135.813354,200.928513 129.809662,200.656830 123.802979,200.498657 
	C123.565598,200.492416 123.299744,201.567856 122.733902,202.888214 
M426.311798,195.067780 
	C426.522675,188.973083 426.871552,182.876755 426.799835,176.785400 
	C426.788666,175.841125 424.893311,174.174500 423.799591,174.114548 
	C418.677155,173.833694 413.524170,173.868073 408.397339,174.111404 
	C407.350952,174.161072 405.497559,175.592697 405.497131,176.388138 
	C405.493439,182.812531 405.843750,189.237137 406.163727,196.511948 
	C406.443604,196.898361 406.715271,197.615173 407.004578,197.622375 
	C412.773163,197.765640 418.544495,197.884720 424.312775,197.811737 
	C424.864166,197.804794 425.399139,196.496170 426.311798,195.067780 
M374.470032,174.875992 
	C374.348724,180.923386 374.137787,186.971603 374.194366,193.017334 
	C374.203766,194.023682 375.377960,195.019135 376.171906,196.820282 
	C382.172028,197.083557 388.171570,197.367462 394.174347,197.537018 
	C394.422607,197.544037 394.701111,196.479889 395.298615,195.165085 
	C395.182953,188.179703 395.067291,181.194336 394.671478,173.444489 
	C388.469055,173.181152 382.267365,172.890213 376.062378,172.722839 
	C375.688690,172.712753 375.288422,173.687912 374.470032,174.875992 
M311.128937,175.391251 
	C311.421936,182.253494 311.714905,189.115753 312.161896,196.785217 
	C318.500031,197.066055 324.837616,197.366364 331.178497,197.554749 
	C331.425751,197.562103 331.704834,196.497559 332.315521,195.187317 
	C332.191498,188.184631 332.067474,181.181946 331.844116,173.353180 
	C325.209595,173.168961 318.575348,172.963593 311.939575,172.874283 
	C311.660889,172.870514 311.367676,173.947128 311.128937,175.391251 
M249.162247,196.604156 
	C249.613235,197.027924 250.056580,197.810898 250.516373,197.820679 
	C255.963669,197.936737 261.415619,198.018433 266.859772,197.869370 
	C267.568298,197.849976 268.240021,196.486145 269.076538,195.261810 
	C269.359467,194.844589 269.642365,194.427383 270.739136,193.850693 
	C270.924896,187.715912 271.120209,181.581314 271.238007,175.445236 
	C271.240753,175.301117 270.373383,175.140289 269.255737,174.489883 
	C263.166321,174.328125 257.076538,174.076019 250.987885,174.100830 
	C250.061905,174.104599 248.335510,175.401672 248.343124,176.085342 
	C248.416336,182.648682 248.782501,189.208786 249.162247,196.604156 
M237.678238,173.486877 
	C231.131775,173.225967 224.585907,172.942154 218.037033,172.776718 
	C217.733063,172.769043 217.402313,173.820297 217.018906,175.266373 
	C216.992096,177.387299 216.841553,179.515381 216.963547,181.627716 
	C217.240250,186.418488 217.651093,191.201538 218.162857,196.793533 
	C224.506546,197.056122 230.849747,197.337357 237.195923,197.507339 
	C237.429596,197.513596 237.692413,196.431870 238.186142,195.090225 
	C238.100601,188.148788 238.015060,181.207352 237.678238,173.486877 
M206.571945,195.375763 
	C206.682861,188.387695 206.793777,181.399643 206.690506,173.604584 
	C200.040161,173.382660 193.390106,173.148300 186.738174,172.994263 
	C186.521683,172.989273 186.286209,173.803635 185.778427,174.980148 
	C185.867996,181.946365 185.957565,188.912567 186.174911,196.697510 
	C192.621994,196.917435 199.068863,197.146576 205.517532,197.299301 
	C205.665115,197.302795 205.833176,196.442169 206.571945,195.375763 
M155.165817,196.792679 
	C161.280273,196.971207 167.394531,197.159729 173.510223,197.270508 
	C173.663177,197.273270 173.831665,196.417267 174.346970,195.621506 
	C174.769928,195.382568 175.192886,195.143631 176.472244,194.841187 
	C176.924240,194.428345 177.760513,194.024170 177.770050,193.601364 
	C177.895065,188.062607 177.980560,182.519226 177.836975,176.983185 
	C177.820190,176.335449 176.378082,175.724670 175.212830,175.054260 
	C174.952087,174.904724 174.854965,174.683426 174.679733,173.592590 
	C168.018265,173.403275 161.357010,173.202301 154.694305,173.081284 
	C154.496063,173.077682 154.282578,173.913254 153.971497,175.245438 
	C153.934128,178.025192 153.737213,180.814163 153.896820,183.582565 
	C154.135681,187.725159 154.625229,191.853287 155.165817,196.792679 
M122.740051,174.980133 
	C122.593178,181.062653 122.371506,187.145264 122.378845,193.227600 
	C122.379974,194.155869 123.440552,195.082870 124.167091,196.812775 
	C129.940430,197.010086 135.713531,197.218445 141.488403,197.345749 
	C141.644699,197.349182 141.820312,196.477020 142.700653,195.656525 
	C142.834930,188.508072 142.969208,181.359604 142.738586,173.462387 
	C136.527679,173.187302 130.317505,172.886673 124.103828,172.707642 
	C123.769920,172.698029 123.406570,173.710175 122.740051,174.980133 
M269.164642,223.451813 
	C269.355286,223.210312 269.598389,223.046707 270.713928,222.836075 
	C270.908264,216.372955 271.111664,209.910019 271.238495,203.445572 
	C271.241333,203.301712 270.372528,203.140747 269.563202,202.731873 
	C269.346619,202.539886 269.159241,202.322708 268.837067,201.270111 
	C262.389343,201.069733 255.941833,200.859772 249.492706,200.726685 
	C249.338577,200.723526 249.166702,201.580002 248.530014,202.708267 
	C248.675720,209.755920 248.821426,216.803574 249.123611,224.673615 
	C255.596634,224.862427 262.069519,225.059280 268.543823,225.181320 
	C268.671112,225.183716 268.814941,224.308304 269.164642,223.451813 
M394.822998,201.285629 
	C388.374786,201.093826 381.926788,200.892502 375.477264,200.768158 
	C375.324951,200.765228 375.156006,201.625656 374.505127,202.739624 
	C374.356964,209.652832 374.208832,216.566055 374.356903,224.249985 
	C380.988129,224.672989 387.618408,225.114990 394.254333,225.443436 
	C394.497894,225.455505 394.796478,224.355698 395.423553,223.072418 
	C395.270782,216.080978 395.117981,209.089554 394.822998,201.285629 
M415.260620,268.854523 
	C386.268738,268.815918 357.276855,268.771179 328.284973,268.741272 
	C313.621460,268.726135 298.957855,268.761841 284.294495,268.714325 
	C281.751709,268.706116 279.765869,268.706055 279.794861,272.251251 
	C279.976013,294.407318 280.007416,316.564575 280.511627,339.455566 
	C281.468170,339.643372 282.424622,339.994843 283.381256,339.995453 
	C326.245911,340.023132 369.110596,340.031433 411.975128,339.966187 
	C413.294159,339.964203 414.611938,339.160370 416.074768,338.239960 
	C416.213165,338.140503 416.351532,338.041077 417.180420,337.665497 
	C417.446686,337.091522 417.944550,336.518036 417.945801,335.943481 
	C417.991455,314.645538 418.015991,293.347412 417.921753,272.049866 
	C417.917175,271.018433 416.813507,269.991852 415.260620,268.854523 
M269.273041,269.470978 
	C267.663818,269.226135 266.054810,268.768921 264.445343,268.767395 
	C222.347717,268.727570 180.249893,268.784180 138.152634,268.653137 
	C134.234207,268.640900 133.002762,269.715637 133.037994,273.691040 
	C133.216446,293.823120 133.099091,313.957703 133.159088,334.091187 
	C133.163849,335.686798 133.729782,337.280762 134.540985,339.549438 
	C135.511658,339.706238 136.482254,339.999664 137.453003,340.000183 
	C179.935638,340.023132 222.418304,340.031036 264.900879,339.970978 
	C266.252045,339.969086 267.602173,339.237213 269.128326,338.433441 
	C269.313141,338.179718 269.558868,338.019348 270.689789,337.836639 
	C271.130371,336.873901 271.951996,335.912506 271.955475,334.948151 
	C272.029724,314.383667 272.043732,293.818695 271.923248,273.254639 
	C271.916962,272.175446 270.617004,271.103821 269.273041,269.470978 
M460.500000,349.996338 
	C319.709198,349.996338 178.918396,349.996338 38.127605,349.996338 
	C38.127953,350.227570 38.128300,350.458771 38.128647,350.690002 
	C197.042725,350.690002 355.956787,350.690002 514.870850,350.690002 
	C514.871765,350.458771 514.872620,350.227570 514.873474,349.996338 
	C497.082306,349.996338 479.291138,349.996338 460.500000,349.996338 
M231.500000,266.981049 
	C199.114029,266.981049 166.728058,266.981049 134.342102,266.981049 
	C134.343781,267.194427 134.345459,267.407837 134.347153,267.621216 
	C178.861786,267.621216 223.376419,267.621216 267.891052,267.621216 
	C267.892059,267.407806 267.893036,267.194366 267.894043,266.980957 
	C256.096039,266.980957 244.298019,266.980957 231.500000,266.981049 
M388.500000,266.980927 
	C352.767761,266.980927 317.035553,266.980927 281.303314,266.980927 
	C281.304810,267.195404 281.306305,267.409912 281.307770,267.624390 
	C325.837219,267.624390 370.366669,267.624390 414.896118,267.624390 
	C414.897156,267.409882 414.898193,267.195343 414.899231,266.980835 
	C406.432800,266.980835 397.966400,266.980835 388.500000,266.980927 
M278.908081,289.500305 
	C278.908081,283.071869 278.908081,276.643433 278.908081,270.214996 
	C278.707184,270.221954 278.506256,270.228912 278.305359,270.235901 
	C278.305359,292.745361 278.305359,315.254852 278.305359,337.764313 
	C278.506195,337.763824 278.707031,337.763336 278.907867,337.762817 
	C278.907867,322.008606 278.907867,306.254395 278.908081,289.500305 
z"/>
<path fill="#3073D3" opacity="1.000000" stroke="none" 
	d="
M391.017120,117.029884 
	C385.017914,113.759216 379.018707,110.488548 372.991150,106.386589 
	C372.972778,98.578987 373.067139,91.601036 372.932007,84.627548 
	C372.899109,82.929726 372.111877,81.246521 371.671509,79.556595 
	C376.642548,75.313110 381.603912,71.058197 386.591522,66.834305 
	C387.823547,65.790924 389.140930,64.848366 390.739380,64.313629 
	C391.045502,82.188492 391.031311,99.609184 391.017120,117.029884 
z"/>
<path fill="#3474D3" opacity="1.000000" stroke="none" 
	d="
M354.413696,97.216537 
	C354.018494,97.012695 353.623291,96.808861 353.064575,96.051010 
	C350.270844,93.678886 347.640594,91.860786 345.011536,89.571365 
	C345.011078,81.375191 345.009399,73.650337 345.140106,65.621292 
	C345.452942,64.467300 345.633423,63.617493 345.813904,62.767685 
	C345.813873,62.767681 345.924011,62.894398 346.226471,62.886124 
	C347.567963,61.798920 348.606995,60.719990 349.646027,59.641060 
	C349.646027,59.641068 349.804993,59.963432 350.090149,59.875801 
	C350.870178,59.127197 351.365021,58.466228 351.859894,57.805260 
	C351.859894,57.805264 351.930389,57.924805 352.254181,57.932716 
	C355.353180,56.369099 358.128357,54.797569 361.476685,52.901482 
	C361.476685,68.341179 361.476685,83.406158 361.476685,98.599625 
	C358.895660,98.094200 356.654694,97.655365 354.413696,97.216537 
z"/>
<path fill="#3E80D6" opacity="1.000000" stroke="none" 
	d="
M354.638977,97.490768 
	C356.654694,97.655365 358.895660,98.094200 361.476685,98.599625 
	C361.476685,83.406158 361.476685,68.341179 361.476685,52.901482 
	C358.128357,54.797569 355.353180,56.369099 352.194641,57.897087 
	C355.677734,54.466351 359.544159,51.079166 364.321747,46.893738 
	C364.321747,66.464478 364.321747,84.407700 364.321747,103.300682 
	C360.723846,101.194756 357.794067,99.479881 354.638977,97.490768 
z"/>
<path fill="#1669D0" opacity="1.000000" stroke="none" 
	d="
M96.262741,159.753418 
	C97.012222,160.001358 98.081123,160.331253 98.065163,160.595673 
	C97.790886,165.141022 97.059975,169.677826 97.053284,174.217422 
	C96.976021,226.648651 97.003967,279.080048 97.003967,331.511414 
	C97.003967,333.305267 97.003967,335.099091 97.003967,336.892944 
	C96.642937,336.891754 96.281914,336.890564 95.920883,336.889404 
	C95.920883,278.414642 95.920883,219.939880 95.820038,160.959747 
	C95.719681,160.172348 95.839043,159.955856 96.262741,159.753418 
z"/>
<path fill="#0968D0" opacity="1.000000" stroke="none" 
	d="
M457.215576,160.360596 
	C457.150024,162.892532 456.949005,165.215439 456.948273,167.538422 
	C456.930634,222.161545 456.934540,276.784668 456.934540,331.407776 
	C456.934540,333.211670 456.934570,335.015564 456.934570,336.819427 
	C456.620575,336.829224 456.306580,336.838989 455.992584,336.848755 
	C455.992584,335.184814 455.992554,333.520874 455.992554,331.856934 
	C455.992554,277.067291 455.994751,222.277634 455.985718,167.487976 
	C455.985291,164.969391 455.884583,162.450851 456.157074,159.816986 
	C456.793884,159.728455 457.023834,159.878433 457.215576,160.360596 
z"/>
<path fill="#72A0DF" opacity="1.000000" stroke="none" 
	d="
M391.421448,116.991486 
	C391.031311,99.609184 391.045502,82.188492 391.104370,64.283310 
	C391.702026,64.832253 392.730225,65.862656 392.736786,66.899551 
	C392.837128,82.699020 392.819550,98.499405 392.760132,114.299316 
	C392.756805,115.185066 392.151123,116.068550 391.421448,116.991486 
z"/>
<path fill="#0074D4" opacity="1.000000" stroke="none" 
	d="
M515.529785,338.891296 
	C515.638062,339.450012 515.285278,340.323120 514.935425,340.321991 
	C497.092041,340.263367 479.248840,340.135345 461.405884,339.984528 
	C460.777283,339.979218 460.151276,339.668182 459.284363,339.150574 
	C477.719849,338.800262 496.395020,338.799072 515.529785,338.891296 
z"/>
<path fill="#0074D4" opacity="1.000000" stroke="none" 
	d="
M93.480408,338.762329 
	C92.280380,339.196686 90.620186,339.950348 88.952232,339.967926 
	C71.889030,340.147583 54.824581,340.210144 37.760365,340.273865 
	C37.542751,340.274658 37.323608,339.863586 37.052589,339.308472 
	C55.672207,338.894775 74.344421,338.817352 93.480408,338.762329 
z"/>
<path fill="#0C6FD2" opacity="1.000000" stroke="none" 
	d="
M371.658630,79.587143 
	C372.111877,81.246521 372.899109,82.929726 372.932007,84.627548 
	C373.067139,91.601036 372.972778,98.578987 372.927612,106.067307 
	C372.256653,105.292130 371.103668,104.017708 371.071503,102.715607 
	C370.900452,95.787384 371.010193,88.852211 371.293915,81.292877 
	C371.586914,80.338272 371.608734,80.010231 371.630554,79.682190 
	C371.630554,79.682190 371.645782,79.617683 371.658630,79.587143 
z"/>
<path fill="#1C76D3" opacity="1.000000" stroke="none" 
	d="
M345.007721,65.925484 
	C345.009399,73.650337 345.011078,81.375191 344.737061,89.552322 
	C344.095978,89.982521 343.730652,89.960449 343.365295,89.938377 
	C343.294067,82.281364 343.222839,74.624359 343.531189,66.502838 
	C344.276428,66.000710 344.642090,65.963097 345.007721,65.925484 
z"/>
<path fill="#3E80D6" opacity="1.000000" stroke="none" 
	d="
M343.332458,90.267242 
	C343.730652,89.960449 344.095978,89.982521 344.735840,90.023636 
	C347.640594,91.860786 350.270844,93.678886 352.937134,95.861610 
	C349.748657,94.349518 346.524109,92.472816 343.332458,90.267242 
z"/>
<path fill="#3E80D6" opacity="1.000000" stroke="none" 
	d="
M349.326416,59.704575 
	C348.606995,60.719990 347.567963,61.798920 346.151245,62.848900 
	C346.851288,61.802658 347.929047,60.785374 349.326416,59.704575 
z"/>
<path fill="#3E80D6" opacity="1.000000" stroke="none" 
	d="
M345.140106,65.621292 
	C344.642090,65.963097 344.276428,66.000710 343.635742,66.049377 
	C343.953156,65.006615 344.545624,63.952801 345.476013,62.833336 
	C345.633423,63.617493 345.452942,64.467300 345.140106,65.621292 
z"/>
<path fill="#3E80D6" opacity="1.000000" stroke="none" 
	d="
M351.556519,57.860966 
	C351.365021,58.466228 350.870178,59.127197 350.017212,59.715500 
	C350.190491,59.067444 350.721832,58.492058 351.556519,57.860966 
z"/>
<path fill="#3073D3" opacity="1.000000" stroke="none" 
	d="
M371.394226,79.819778 
	C371.608734,80.010231 371.586914,80.338272 371.366089,80.828659 
	C371.163971,80.646454 371.160919,80.301918 371.394226,79.819778 
z"/>
<path fill="#FCFDFE" opacity="1.000000" stroke="none" 
	d="
M269.865540,337.952301 
	C269.558868,338.019348 269.313141,338.179718 268.577301,338.602966 
	C223.362488,338.806793 178.698715,338.841156 134.034927,338.875488 
	C133.729782,337.280762 133.163849,335.686798 133.159088,334.091187 
	C133.099091,313.957703 133.216446,293.823120 133.037994,273.691040 
	C133.002762,269.715637 134.234207,268.640900 138.152634,268.653137 
	C180.249893,268.784180 222.347717,268.727570 264.445343,268.767395 
	C266.054810,268.768921 267.663818,269.226135 269.536041,270.213013 
	C269.821198,293.287445 269.843384,315.619873 269.865540,337.952301 
z"/>
<path fill="#FDFEFE" opacity="1.000000" stroke="none" 
	d="
M416.489929,337.941620 
	C416.351532,338.041077 416.213165,338.140503 415.539825,338.488220 
	C370.032715,338.731476 325.060547,338.726471 280.088379,338.721466 
	C280.007416,316.564575 279.976013,294.407318 279.794861,272.251251 
	C279.765869,268.706055 281.751709,268.706116 284.294495,268.714325 
	C298.957855,268.761841 313.621460,268.726135 328.284973,268.741272 
	C357.276855,268.771179 386.268738,268.815918 415.734375,269.379547 
	C416.302094,292.583588 416.396027,315.262604 416.489929,337.941620 
z"/>
<path fill="#F0F4FB" opacity="1.000000" stroke="none" 
	d="
M374.060699,223.479263 
	C374.208832,216.566055 374.356964,209.652832 375.217834,202.441620 
	C382.275421,202.128448 388.620300,202.113281 394.965210,202.098114 
	C395.117981,209.089554 395.270782,216.080978 394.772278,223.416718 
	C387.434235,223.667114 380.747467,223.573181 374.060699,223.479263 
z"/>
<path fill="#F2F6FC" opacity="1.000000" stroke="none" 
	d="
M269.893951,222.960999 
	C269.598389,223.046707 269.355286,223.210312 268.594025,223.614624 
	C261.671326,223.802032 255.319229,223.826630 248.967148,223.851227 
	C248.821426,216.803574 248.675720,209.755920 249.233124,202.410629 
	C256.291168,202.102112 262.646088,202.091232 269.001038,202.080353 
	C269.159241,202.322708 269.346619,202.539886 269.700073,203.327545 
	C269.855988,210.269135 269.874969,216.615067 269.893951,222.960999 
z"/>
<path fill="#F2F6FC" opacity="1.000000" stroke="none" 
	d="
M143.103485,174.211151 
	C142.969208,181.359604 142.834930,188.508072 141.880310,195.776123 
	C135.377014,195.933975 129.694061,195.972214 124.011124,196.010452 
	C123.440552,195.082870 122.379974,194.155869 122.378845,193.227600 
	C122.371506,187.145264 122.593178,181.062653 123.362747,174.619919 
	C130.358124,174.243515 136.730804,174.227325 143.103485,174.211151 
z"/>
<path fill="#F3F7FC" opacity="1.000000" stroke="none" 
	d="
M174.921463,174.390350 
	C174.854965,174.683426 174.952087,174.904724 175.378006,175.536499 
	C175.567398,182.314056 175.591629,188.609375 175.615845,194.904678 
	C175.192886,195.143631 174.769928,195.382568 173.704651,195.746460 
	C167.044266,195.910126 161.026215,195.948853 155.008148,195.987579 
	C154.625229,191.853287 154.135681,187.725159 153.896820,183.582565 
	C153.737213,180.814163 153.934128,178.025192 154.486435,174.775787 
	C161.641403,174.334213 168.281433,174.362289 174.921463,174.390350 
z"/>
<path fill="#F6F8FC" opacity="1.000000" stroke="none" 
	d="
M206.904709,174.411575 
	C206.793777,181.399643 206.682861,188.387695 205.816864,195.629105 
	C198.723557,195.881226 192.385345,195.880005 186.047134,195.878784 
	C185.957565,188.912567 185.867996,181.946365 186.382950,174.617462 
	C193.626556,174.307037 200.265625,174.359314 206.904709,174.411575 
z"/>
<path fill="#F6F8FC" opacity="1.000000" stroke="none" 
	d="
M218.007385,195.987701 
	C217.651093,191.201538 217.240250,186.418488 216.963547,181.627716 
	C216.841553,179.515381 216.992096,177.387299 217.512695,174.786163 
	C224.647491,174.292618 231.288513,174.279266 237.929520,174.265915 
	C238.015060,181.207352 238.100601,188.148788 237.600525,195.463989 
	C230.679077,195.887741 224.343231,195.937714 218.007385,195.987701 
z"/>
<path fill="#F2F6FC" opacity="1.000000" stroke="none" 
	d="
M269.925293,194.010162 
	C269.642365,194.427383 269.359467,194.844589 268.540314,195.470551 
	C261.690979,195.709473 255.377853,195.739639 249.064743,195.769806 
	C248.782501,189.208786 248.416336,182.648682 248.343124,176.085342 
	C248.335510,175.401672 250.061905,174.104599 250.987885,174.100830 
	C257.076538,174.076019 263.166321,174.328125 269.544312,175.206085 
	C269.863678,181.951569 269.894501,187.980865 269.925293,194.010162 
z"/>
<path fill="#F3F7FC" opacity="1.000000" stroke="none" 
	d="
M312.007904,195.977997 
	C311.714905,189.115753 311.421936,182.253494 311.561707,174.863983 
	C318.644165,174.284225 325.293793,174.231735 331.943451,174.179260 
	C332.067474,181.181946 332.191498,188.184631 331.677307,195.531708 
	C324.695374,195.910080 318.351654,195.944031 312.007904,195.977997 
z"/>
<path fill="#F0F4FB" opacity="1.000000" stroke="none" 
	d="
M376.013916,196.019623 
	C375.377960,195.019135 374.203766,194.023682 374.194366,193.017334 
	C374.137787,186.971603 374.348724,180.923386 375.161957,174.563797 
	C382.219788,174.237381 388.585693,174.223160 394.951599,174.208954 
	C395.067291,181.194336 395.182953,188.179703 394.667175,195.518250 
	C388.028442,195.920822 382.021179,195.970230 376.013916,196.019623 
z"/>
<path fill="#EEF3FB" opacity="1.000000" stroke="none" 
	d="
M406.086060,195.661667 
	C405.843750,189.237137 405.493439,182.812531 405.497131,176.388138 
	C405.497559,175.592697 407.350952,174.161072 408.397339,174.111404 
	C413.524170,173.868073 418.677155,173.833694 423.799591,174.114548 
	C424.893311,174.174500 426.788666,175.841125 426.799835,176.785400 
	C426.871552,182.876755 426.522675,188.973083 425.663940,195.389954 
	C418.706055,195.695297 412.396057,195.678482 406.086060,195.661667 
z"/>
<path fill="#F2F6FC" opacity="1.000000" stroke="none" 
	d="
M123.058716,223.753143 
	C122.950447,216.798172 122.842171,209.843185 123.355179,202.523590 
	C129.982468,202.096985 135.988480,202.034988 141.994507,201.973007 
	C142.639465,203.460632 143.779388,204.928314 143.840225,206.439453 
	C144.057220,211.827957 143.907440,217.231232 143.452667,223.117615 
	C136.358795,223.655273 129.708755,223.704208 123.058716,223.753143 
z"/>
<path fill="#F3F7FC" opacity="1.000000" stroke="none" 
	d="
M175.588989,222.900482 
	C175.295685,222.849045 175.079163,222.954849 174.467270,223.431747 
	C167.355133,223.645309 160.715164,223.645020 154.075195,223.644730 
	C154.186371,216.632935 154.297531,209.621140 155.171936,202.358490 
	C161.957718,202.088837 167.980270,202.070038 174.002808,202.051224 
	C174.386475,202.350479 174.770142,202.649734 175.349823,203.482269 
	C175.560242,210.310516 175.574615,216.605499 175.588989,222.900482 
z"/>
<path fill="#F6F8FC" opacity="1.000000" stroke="none" 
	d="
M186.060806,223.764847 
	C185.964035,216.807587 185.867279,209.850342 186.374390,202.524384 
	C193.615265,202.209824 200.252258,202.263962 206.889252,202.318115 
	C206.907791,209.115707 206.926315,215.913284 206.468094,223.200287 
	C199.347839,223.714752 192.704315,223.739792 186.060806,223.764847 
z"/>
<path fill="#F6F8FC" opacity="1.000000" stroke="none" 
	d="
M237.936493,202.164612 
	C238.018982,209.105743 238.101471,216.046875 237.593781,223.359222 
	C230.362732,223.695068 223.721832,223.659714 217.080933,223.624344 
	C217.190704,216.616501 217.300461,209.608643 218.172180,202.356415 
	C225.268265,202.129547 231.602386,202.147079 237.936493,202.164612 
z"/>
<path fill="#F3F7FC" opacity="1.000000" stroke="none" 
	d="
M311.075500,223.486023 
	C311.208344,216.539810 311.341187,209.593582 312.205383,202.375793 
	C319.281494,202.092667 325.626251,202.081116 331.971008,202.069565 
	C332.079651,209.076447 332.188324,216.083344 331.655579,223.431183 
	C324.367950,223.676758 317.721741,223.581390 311.075500,223.486023 
z"/>
<path fill="#F0F4FB" opacity="1.000000" stroke="none" 
	d="
M425.996582,202.019745 
	C426.171204,209.084885 426.345825,216.149994 425.805786,223.507629 
	C418.745361,223.790436 412.399597,223.780716 406.053833,223.770996 
	C405.944092,216.809280 405.834381,209.847565 406.352264,202.530807 
	C413.318756,202.123764 419.657654,202.071762 425.996582,202.019745 
z"/>
<path fill="#0968D0" opacity="1.000000" stroke="none" 
	d="
M461.000000,349.996338 
	C479.291138,349.996338 497.082306,349.996338 514.873474,349.996338 
	C514.872620,350.227570 514.871765,350.458771 514.870850,350.690002 
	C355.956787,350.690002 197.042725,350.690002 38.128647,350.690002 
	C38.128300,350.458771 38.127953,350.227570 38.127605,349.996338 
	C178.918396,349.996338 319.709198,349.996338 461.000000,349.996338 
z"/>
<path fill="#F3F7FC" opacity="1.000000" stroke="none" 
	d="
M343.082458,223.610840 
	C343.197266,216.628342 343.312073,209.645844 344.178894,202.400543 
	C350.952209,202.087875 356.973511,202.037994 362.994843,201.988098 
	C363.393738,205.473221 363.962677,208.949539 364.143372,212.445938 
	C364.320984,215.883087 364.104431,219.340607 363.531738,223.251572 
	C356.362579,223.679581 349.722504,223.645218 343.082458,223.610840 
z"/>
<path fill="#F6F8FC" opacity="1.000000" stroke="none" 
	d="
M280.077637,223.714005 
	C280.029175,216.842499 279.980713,209.970978 280.465851,202.634857 
	C287.642029,202.182663 294.284576,202.195068 300.927124,202.207474 
	C300.970795,209.073929 301.014465,215.940399 300.529572,223.266571 
	C293.359894,223.722183 286.718781,223.718094 280.077637,223.714005 
z"/>
<path fill="#F6F8FC" opacity="1.000000" stroke="none" 
	d="
M300.925354,174.300644 
	C300.969757,181.169876 301.014160,188.039093 300.532898,195.369690 
	C293.361755,195.829453 286.716278,195.827850 280.070801,195.826263 
	C280.025818,188.944931 279.980865,182.063599 280.469360,174.725372 
	C287.643646,174.279190 294.284515,174.289917 300.925354,174.300644 
z"/>
<path fill="#F3F7FC" opacity="1.000000" stroke="none" 
	d="
M363.927673,174.321472 
	C363.824371,181.353104 363.721100,188.384750 362.839417,195.654785 
	C356.378021,195.934204 350.695038,195.975235 345.012024,196.016266 
	C344.307678,194.724640 343.041901,193.452454 342.996429,192.138031 
	C342.802185,186.522278 342.968170,180.894058 343.504578,174.807770 
	C350.646820,174.337265 357.287231,174.329361 363.927673,174.321472 
z"/>
<path fill="#1C76D3" opacity="1.000000" stroke="none" 
	d="
M416.835175,337.803558 
	C416.396027,315.262604 416.302094,292.583588 416.214905,269.433777 
	C416.813507,269.991852 417.917175,271.018433 417.921753,272.049866 
	C418.015991,293.347412 417.991455,314.645538 417.945801,335.943481 
	C417.944550,336.518036 417.446686,337.091522 416.835175,337.803558 
z"/>
<path fill="#0074D4" opacity="1.000000" stroke="none" 
	d="
M280.299988,339.088501 
	C325.060547,338.726471 370.032715,338.731476 415.467590,338.733398 
	C414.611938,339.160370 413.294159,339.964203 411.975128,339.966187 
	C369.110596,340.031433 326.245911,340.023132 283.381256,339.995453 
	C282.424622,339.994843 281.468170,339.643372 280.299988,339.088501 
z"/>
<path fill="#0C6AD0" opacity="1.000000" stroke="none" 
	d="
M270.277679,337.894470 
	C269.843384,315.619873 269.821198,293.287445 269.859192,270.491852 
	C270.617004,271.103821 271.916962,272.175446 271.923248,273.254639 
	C272.043732,293.818695 272.029724,314.383667 271.955475,334.948151 
	C271.951996,335.912506 271.130371,336.873901 270.277679,337.894470 
z"/>
<path fill="#0061CF" opacity="1.000000" stroke="none" 
	d="
M232.000000,266.981018 
	C244.298019,266.980957 256.096039,266.980957 267.894043,266.980957 
	C267.893036,267.194366 267.892059,267.407806 267.891052,267.621216 
	C223.376419,267.621216 178.861786,267.621216 134.347153,267.621216 
	C134.345459,267.407837 134.343781,267.194427 134.342102,266.981049 
	C166.728058,266.981049 199.114029,266.981049 232.000000,266.981018 
z"/>
<path fill="#0061CF" opacity="1.000000" stroke="none" 
	d="
M389.000000,266.980896 
	C397.966400,266.980835 406.432800,266.980835 414.899231,266.980835 
	C414.898193,267.195343 414.897156,267.409882 414.896118,267.624390 
	C370.366669,267.624390 325.837219,267.624390 281.307770,267.624390 
	C281.306305,267.409912 281.304810,267.195404 281.303314,266.980927 
	C317.035553,266.980927 352.767761,266.980927 389.000000,266.980896 
z"/>
<path fill="#0074D4" opacity="1.000000" stroke="none" 
	d="
M134.287964,339.212463 
	C178.698715,338.841156 223.362488,338.806793 268.489532,338.809082 
	C267.602173,339.237213 266.252045,339.969086 264.900879,339.970978 
	C222.418304,340.031036 179.935638,340.023132 137.453003,340.000183 
	C136.482254,339.999664 135.511658,339.706238 134.287964,339.212463 
z"/>
<path fill="#0061CF" opacity="1.000000" stroke="none" 
	d="
M278.907959,290.000244 
	C278.907867,306.254395 278.907867,322.008606 278.907867,337.762817 
	C278.707031,337.763336 278.506195,337.763824 278.305359,337.764313 
	C278.305359,315.254852 278.305359,292.745361 278.305359,270.235901 
	C278.506256,270.228912 278.707184,270.221954 278.908081,270.214996 
	C278.908081,276.643433 278.908081,283.071869 278.907959,290.000244 
z"/>
<path fill="#0C6FD2" opacity="1.000000" stroke="none" 
	d="
M280.125183,196.238953 
	C286.716278,195.827850 293.361755,195.829453 300.470215,195.823547 
	C300.228638,196.540085 299.539246,197.873688 298.817108,197.891632 
	C293.063080,198.034714 287.302277,197.956726 281.545532,197.844833 
	C281.082642,197.835846 280.634552,197.067261 280.125183,196.238953 
z"/>
<path fill="#1C76D3" opacity="1.000000" stroke="none" 
	d="
M300.875793,201.792511 
	C294.284576,202.195068 287.642029,202.182663 280.536987,202.182785 
	C280.775909,201.469955 281.462280,200.133530 282.181000,200.115891 
	C287.940582,199.974655 293.706848,200.054031 299.469025,200.168518 
	C299.928650,200.177673 300.372986,200.956451 300.875793,201.792511 
z"/>
<path fill="#1C76D3" opacity="1.000000" stroke="none" 
	d="
M206.856430,201.894928 
	C200.252258,202.263962 193.615265,202.209824 186.513641,202.145172 
	C186.611435,201.448318 187.161514,200.177994 187.738235,200.165771 
	C193.668671,200.040131 199.603912,200.090256 205.535934,200.196640 
	C205.972641,200.204483 206.394730,201.027634 206.856430,201.894928 
z"/>
<path fill="#0D6CD2" opacity="1.000000" stroke="none" 
	d="
M331.893799,173.766220 
	C325.293793,174.231735 318.644165,174.284225 311.537872,174.428574 
	C311.367676,173.947128 311.660889,172.870514 311.939575,172.874283 
	C318.575348,172.963593 325.209595,173.168961 331.893799,173.766220 
z"/>
<path fill="#0968D0" opacity="1.000000" stroke="none" 
	d="
M311.182373,223.898956 
	C317.721741,223.581390 324.367950,223.676758 331.477783,223.794144 
	C331.399414,224.508987 330.870819,225.791077 330.313446,225.803726 
	C324.579956,225.933624 318.840698,225.904129 313.106384,225.773056 
	C312.489838,225.758957 311.894440,224.821198 311.182373,223.898956 
z"/>
<path fill="#0D6CD2" opacity="1.000000" stroke="none" 
	d="
M249.045380,224.262421 
	C255.319229,223.826630 261.671326,223.802032 268.487244,223.809937 
	C268.814941,224.308304 268.671112,225.183716 268.543823,225.181320 
	C262.069519,225.059280 255.596634,224.862427 249.045380,224.262421 
z"/>
<path fill="#0968D0" opacity="1.000000" stroke="none" 
	d="
M217.194519,224.024582 
	C223.721832,223.659714 230.362732,223.695068 237.466553,223.733154 
	C237.711411,224.172211 237.485321,224.993423 237.276443,224.989059 
	C230.619293,224.850266 223.963821,224.631516 217.194519,224.024582 
z"/>
<path fill="#0968D0" opacity="1.000000" stroke="none" 
	d="
M280.197357,224.106689 
	C286.718781,223.718094 293.359894,223.722183 300.463623,223.712631 
	C300.593048,224.246338 300.246063,225.278564 299.928619,225.269562 
	C293.389404,225.084015 286.853546,224.779922 280.197357,224.106689 
z"/>
<path fill="#0968D0" opacity="1.000000" stroke="none" 
	d="
M186.191055,224.151733 
	C192.704315,223.739792 199.347839,223.714752 206.451157,223.643372 
	C206.600189,224.159668 206.277802,225.218918 205.980347,225.211960 
	C199.425659,225.058731 192.873749,224.787415 186.191055,224.151733 
z"/>
<path fill="#0968D0" opacity="1.000000" stroke="none" 
	d="
M154.191376,224.043030 
	C160.715164,223.645020 167.355133,223.645309 174.457901,223.623718 
	C174.603409,224.163132 174.272049,225.221268 173.970901,225.212738 
	C167.414429,225.027145 160.861313,224.722824 154.191376,224.043030 
z"/>
<path fill="#0C6AD0" opacity="1.000000" stroke="none" 
	d="
M270.303955,222.898529 
	C269.874969,216.615067 269.855988,210.269135 269.873657,203.455475 
	C270.372528,203.140747 271.241333,203.301712 271.238495,203.445572 
	C271.111664,209.910019 270.908264,216.372955 270.303955,222.898529 
z"/>
<path fill="#1669D0" opacity="1.000000" stroke="none" 
	d="
M176.019165,222.870728 
	C175.574615,216.605499 175.560242,210.310516 175.582840,203.554932 
	C176.394669,203.729095 177.824860,204.347366 177.841324,205.001251 
	C177.980774,210.537140 177.891693,216.080200 177.762573,221.618576 
	C177.752853,222.036026 176.906677,222.433975 176.019165,222.870728 
z"/>
<path fill="#0D6CD2" opacity="1.000000" stroke="none" 
	d="
M300.803467,173.907715 
	C294.284515,174.289917 287.643646,174.279190 280.540588,174.279297 
	C280.291199,173.851898 280.510468,173.027969 280.715820,173.031403 
	C287.371918,173.143372 294.026642,173.335022 300.803467,173.907715 
z"/>
<path fill="#0968D0" opacity="1.000000" stroke="none" 
	d="
M343.193665,224.012207 
	C349.722504,223.645218 356.362579,223.679581 363.465637,223.696442 
	C363.718109,224.120575 363.500092,224.951385 363.298187,224.947495 
	C356.632812,224.818893 349.968964,224.610336 343.193665,224.012207 
z"/>
<path fill="#0968D0" opacity="1.000000" stroke="none" 
	d="
M374.208801,223.864624 
	C380.747467,223.573181 387.434235,223.667114 394.595215,223.767532 
	C394.796478,224.355698 394.497894,225.455505 394.254333,225.443436 
	C387.618408,225.114990 380.988129,224.672989 374.208801,223.864624 
z"/>
<path fill="#0D6CD2" opacity="1.000000" stroke="none" 
	d="
M206.797607,174.008087 
	C200.265625,174.359314 193.626556,174.307037 186.523529,174.245407 
	C186.286209,173.803635 186.521683,172.989273 186.738174,172.994263 
	C193.390106,173.148300 200.040161,173.382660 206.797607,174.008087 
z"/>
<path fill="#0D6CD2" opacity="1.000000" stroke="none" 
	d="
M363.806183,173.926941 
	C357.287231,174.329361 350.646820,174.337265 343.543823,174.364441 
	C343.403625,173.825562 343.739410,172.773560 344.046265,172.781937 
	C350.594391,172.960495 357.139221,173.258026 363.806183,173.926941 
z"/>
<path fill="#1C76D3" opacity="1.000000" stroke="none" 
	d="
M331.897095,201.665161 
	C325.626251,202.081116 319.281494,202.092667 312.471130,202.054962 
	C312.172119,201.552567 312.347229,200.700394 312.504120,200.703751 
	C318.944824,200.841385 325.383881,201.055923 331.897095,201.665161 
z"/>
<path fill="#0C6FD2" opacity="1.000000" stroke="none" 
	d="
M312.084900,196.381607 
	C318.351654,195.944031 324.695374,195.910080 331.504089,195.904297 
	C331.704834,196.497559 331.425751,197.562103 331.178497,197.554749 
	C324.837616,197.366364 318.500031,197.066055 312.084900,196.381607 
z"/>
<path fill="#1669D0" opacity="1.000000" stroke="none" 
	d="
M249.113495,196.186981 
	C255.377853,195.739639 261.690979,195.709473 268.466431,195.712189 
	C268.240021,196.486145 267.568298,197.849976 266.859772,197.869370 
	C261.415619,198.018433 255.963669,197.936737 250.516373,197.820679 
	C250.056580,197.810898 249.613235,197.027924 249.113495,196.186981 
z"/>
<path fill="#1669D0" opacity="1.000000" stroke="none" 
	d="
M406.124878,196.086807 
	C412.396057,195.678482 418.706055,195.695297 425.478882,195.751984 
	C425.399139,196.496170 424.864166,197.804794 424.312775,197.811737 
	C418.544495,197.884720 412.773163,197.765640 407.004578,197.622375 
	C406.715271,197.615173 406.443604,196.898361 406.124878,196.086807 
z"/>
<path fill="#0C6FD2" opacity="1.000000" stroke="none" 
	d="
M218.085114,196.390625 
	C224.343231,195.937714 230.679077,195.887741 237.478287,195.847458 
	C237.692413,196.431870 237.429596,197.513596 237.195923,197.507339 
	C230.849747,197.337357 224.506546,197.056122 218.085114,196.390625 
z"/>
<path fill="#0C6FD2" opacity="1.000000" stroke="none" 
	d="
M186.111023,196.288147 
	C192.385345,195.880005 198.723557,195.881226 205.526733,195.933533 
	C205.833176,196.442169 205.665115,197.302795 205.517532,197.299301 
	C199.068863,197.146576 192.621994,196.917435 186.111023,196.288147 
z"/>
<path fill="#1C76D3" opacity="1.000000" stroke="none" 
	d="
M237.879669,201.752930 
	C231.602386,202.147079 225.268265,202.129547 218.469147,202.054504 
	C218.173050,201.543503 218.352371,200.690125 218.509369,200.694199 
	C224.948471,200.861725 231.385529,201.106354 237.879669,201.752930 
z"/>
<path fill="#1C76D3" opacity="1.000000" stroke="none" 
	d="
M268.919067,201.675232 
	C262.646088,202.091232 256.291168,202.102112 249.469666,202.074265 
	C249.166702,201.580002 249.338577,200.723526 249.492706,200.726685 
	C255.941833,200.859772 262.389343,201.069733 268.919067,201.675232 
z"/>
<path fill="#1C76D3" opacity="1.000000" stroke="none" 
	d="
M394.894104,201.691864 
	C388.620300,202.113281 382.275421,202.128448 375.462646,202.113495 
	C375.156006,201.625656 375.324951,200.765228 375.477264,200.768158 
	C381.926788,200.892502 388.374786,201.093826 394.894104,201.691864 
z"/>
<path fill="#1C76D3" opacity="1.000000" stroke="none" 
	d="
M425.910706,201.619690 
	C419.657654,202.071762 413.318756,202.123764 406.515625,202.159836 
	C406.304047,201.571228 406.570435,200.493195 406.807404,200.499619 
	C413.148407,200.671600 419.486389,200.955063 425.910706,201.619690 
z"/>
<path fill="#0D6CD2" opacity="1.000000" stroke="none" 
	d="
M237.803879,173.876404 
	C231.288513,174.279266 224.647491,174.292618 217.545258,174.342163 
	C217.402313,173.820297 217.733063,172.769043 218.037033,172.776718 
	C224.585907,172.942154 231.131775,173.225967 237.803879,173.876404 
z"/>
<path fill="#1669D0" opacity="1.000000" stroke="none" 
	d="
M176.044037,194.872925 
	C175.591629,188.609375 175.567398,182.314056 175.569962,175.557755 
	C176.378082,175.724670 177.820190,176.335449 177.836975,176.983185 
	C177.980560,182.519226 177.895065,188.062607 177.770050,193.601364 
	C177.760513,194.024170 176.924240,194.428345 176.044037,194.872925 
z"/>
<path fill="#0D6CD2" opacity="1.000000" stroke="none" 
	d="
M174.800598,173.991470 
	C168.281433,174.362289 161.641403,174.334213 154.538788,174.331848 
	C154.282578,173.913254 154.496063,173.077682 154.694305,173.081284 
	C161.357010,173.202301 168.018265,173.403275 174.800598,173.991470 
z"/>
<path fill="#0968D0" opacity="1.000000" stroke="none" 
	d="
M123.188660,224.141052 
	C129.708755,223.704208 136.358795,223.655273 143.472076,223.554779 
	C143.688629,223.919693 143.441483,224.699905 143.195297,224.699615 
	C136.569672,224.691620 129.944153,224.603531 123.188660,224.141052 
z"/>
<path fill="#0D6CD2" opacity="1.000000" stroke="none" 
	d="
M406.190063,224.155609 
	C412.399597,223.780716 418.745361,223.790436 425.560699,223.833130 
	C425.870270,224.331436 425.699219,225.207016 425.551788,225.203064 
	C419.141998,225.030899 412.734253,224.780838 406.190063,224.155609 
z"/>
<path fill="#0C6FD2" opacity="1.000000" stroke="none" 
	d="
M155.086990,196.390137 
	C161.026215,195.948853 167.044266,195.910126 173.527618,195.916595 
	C173.831665,196.417267 173.663177,197.273270 173.510223,197.270508 
	C167.394531,197.159729 161.280273,196.971207 155.086990,196.390137 
z"/>
<path fill="#0C6FD2" opacity="1.000000" stroke="none" 
	d="
M376.092896,196.419952 
	C382.021179,195.970230 388.028442,195.920822 394.500610,195.893097 
	C394.701111,196.479889 394.422607,197.544037 394.174347,197.537018 
	C388.171570,197.367462 382.172028,197.083557 376.092896,196.419952 
z"/>
<path fill="#0C6AD0" opacity="1.000000" stroke="none" 
	d="
M270.332214,193.930420 
	C269.894501,187.980865 269.863678,181.951569 269.872375,175.454773 
	C270.373383,175.140289 271.240753,175.301117 271.238007,175.445236 
	C271.120209,181.581314 270.924896,187.715912 270.332214,193.930420 
z"/>
<path fill="#1C76D3" opacity="1.000000" stroke="none" 
	d="
M141.906036,201.576630 
	C135.988480,202.034988 129.982468,202.096985 123.511803,202.149124 
	C123.299744,201.567856 123.565598,200.492416 123.802979,200.498657 
	C129.809662,200.656830 135.813354,200.928513 141.906036,201.576630 
z"/>
<path fill="#1C76D3" opacity="1.000000" stroke="none" 
	d="
M173.916840,201.649139 
	C167.980270,202.070038 161.957718,202.088837 155.469864,202.055237 
	C155.171783,201.550674 155.347656,200.700409 155.505005,200.703827 
	C161.614685,200.836349 167.722656,201.046829 173.916840,201.649139 
z"/>
<path fill="#1C76D3" opacity="1.000000" stroke="none" 
	d="
M362.907654,201.590424 
	C356.973511,202.037994 350.952209,202.087875 344.464355,202.092926 
	C344.167480,201.584076 344.344482,200.712067 344.505798,200.714951 
	C350.611572,200.824173 356.715942,201.013824 362.907654,201.590424 
z"/>
<path fill="#0D6CD2" opacity="1.000000" stroke="none" 
	d="
M142.921051,173.836761 
	C136.730804,174.227325 130.358124,174.243515 123.521179,174.253204 
	C123.406570,173.710175 123.769920,172.698029 124.103828,172.707642 
	C130.317505,172.886673 136.527679,173.187302 142.921051,173.836761 
z"/>
<path fill="#0D6CD2" opacity="1.000000" stroke="none" 
	d="
M394.811523,173.826721 
	C388.585693,174.223160 382.219788,174.237381 375.377197,174.228119 
	C375.288422,173.687912 375.688690,172.712753 376.062378,172.722839 
	C382.267365,172.890213 388.469055,173.181152 394.811523,173.826721 
z"/>
<path fill="#0C6FD2" opacity="1.000000" stroke="none" 
	d="
M345.090149,196.417023 
	C350.695038,195.975235 356.378021,195.934204 362.525269,195.945633 
	C362.824738,196.463013 362.651337,197.337051 362.496399,197.333801 
	C356.719269,197.212143 350.943878,197.009476 345.090149,196.417023 
z"/>
<path fill="#0C6FD2" opacity="1.000000" stroke="none" 
	d="
M124.089104,196.411621 
	C129.694061,195.972214 135.377014,195.933975 141.523438,195.954468 
	C141.820312,196.477020 141.644699,197.349182 141.488403,197.345749 
	C135.713531,197.218445 129.940430,197.010086 124.089104,196.411621 
z"/>
</svg>